<?xml version="1.0" encoding="UTF-8" standalone="no"?>
<svg
   xmlns:dc="http://purl.org/dc/elements/1.1/"
   xmlns:cc="http://creativecommons.org/ns#"
   xmlns:rdf="http://www.w3.org/1999/02/22-rdf-syntax-ns#"
   xmlns:svg="http://www.w3.org/2000/svg"
   xmlns="http://www.w3.org/2000/svg"
   viewBox="0 0 761.64001 163.12"
   height="163.12"
   width="761.64001"
   xml:space="preserve"
   id="svg2"
   version="1.1"><metadata
     id="metadata8"><rdf:RDF><cc:Work
         rdf:about=""><dc:format>image/svg+xml</dc:format><dc:type
           rdf:resource="http://purl.org/dc/dcmitype/StillImage" /></cc:Work></rdf:RDF></metadata><defs
     id="defs6" /><g
     transform="matrix(1.3333333,0,0,-1.3333333,0,163.12)"
     id="g10"><g
       transform="scale(0.1)"
       id="g12"><path
         id="path14"
         style="fill:#05567e;fill-opacity:1;fill-rule:nonzero;stroke:none"
         d="m 1510.36,862.164 h 69.13 v -220.34 h 5.75 l 225.39,220.34 h 96.48 L 1660.85,626.707 1923.68,352.359 h -100.81 l -237.63,254.903 h -5.75 V 352.359 h -69.13 v 509.805" /><path
         id="path16"
         style="fill:#05567e;fill-opacity:1;fill-rule:nonzero;stroke:none"
         d="m 2105.09,516.535 c -61.2,0 -136.09,-10.801 -136.09,-65.527 0,-38.883 28.81,-55.445 73.45,-55.445 72,0 97.2,53.285 97.2,99.371 v 21.601 z m -182.9,135.371 c 36.01,33.844 87.85,50.407 135.37,50.407 100.81,0 142.58,-54.727 142.58,-113.77 V 414.285 c 0,-23.762 0.72,-43.922 2.89,-61.926 h -57.61 c -1.44,17.282 -2.16,34.567 -2.16,51.848 h -1.45 c -28.8,-43.926 -67.68,-60.488 -119.53,-60.488 -63.36,0 -118.09,36.004 -118.09,102.25 0,87.847 84.25,118.09 187.94,118.09 h 47.52 v 14.402 c 0,35.281 -25.91,72.004 -81.36,72.004 -49.68,0 -73.45,-20.883 -97.21,-38.879 l -38.89,40.32" /><path
         id="path18"
         style="fill:#05567e;fill-opacity:1;fill-rule:nonzero;stroke:none"
         d="m 2262.03,896.727 h 64.81 V 352.359 h -64.81 v 544.368" /><path
         id="path20"
         style="fill:#05567e;fill-opacity:1;fill-rule:nonzero;stroke:none"
         d="m 2647.25,551.098 c -1.43,56.882 -33.11,99.367 -98.64,99.367 -64.1,0 -105.86,-54.004 -105.86,-99.367 z m -204.5,-51.844 c 0,-59.766 55.45,-99.367 115.22,-99.367 39.61,0 68.4,20.16 93.61,51.121 l 48.97,-37.442 c -36.02,-46.804 -85.71,-69.847 -151.21,-69.847 -108.03,0 -175.71,77.765 -175.71,179.297 0,102.25 74.16,179.297 176.41,179.297 120.25,0 166.35,-92.168 166.35,-180.016 v -23.043 h -273.64" /><path
         id="path22"
         style="fill:#05567e;fill-opacity:1;fill-rule:nonzero;stroke:none"
         d="m 2770.35,693.668 h 64.81 V 352.359 h -64.81 z m 32.4,169.937 c 25.94,0 47.54,-21.601 47.54,-47.523 0,-25.926 -21.6,-47.527 -47.54,-47.527 -25.91,0 -47.52,21.601 -47.52,47.527 0,25.922 21.61,47.523 47.52,47.523" /><path
         id="path24"
         style="fill:#05567e;fill-opacity:1;fill-rule:nonzero;stroke:none"
         d="m 3186.52,523.016 c 0,69.125 -43.2,118.808 -112.32,118.808 -69.12,0 -112.32,-49.683 -112.32,-118.808 0,-69.125 43.2,-118.809 112.32,-118.809 69.12,0 112.32,49.684 112.32,118.809 z m 64.81,-170.657 h -64.81 v 48.965 h -1.44 c -25.2,-36.722 -72.72,-57.605 -118.81,-57.605 -105.84,0 -173.54,78.484 -173.54,179.297 0,102.25 68.42,179.297 173.54,179.297 48.96,0 95.78,-22.325 118.81,-57.61 h 1.44 v 252.024 h 64.81 V 352.359" /><path
         id="path26"
         style="fill:#05567e;fill-opacity:1;fill-rule:nonzero;stroke:none"
         d="m 3497.56,516.535 c -61.21,0 -136.1,-10.801 -136.1,-65.527 0,-38.883 28.81,-55.445 73.44,-55.445 72.01,0 97.21,53.285 97.21,99.371 v 21.601 z m -182.91,135.371 c 36.01,33.844 87.85,50.407 135.37,50.407 100.82,0 142.58,-54.727 142.58,-113.77 V 414.285 c 0,-23.762 0.72,-43.922 2.89,-61.926 h -57.62 c -1.42,17.282 -2.15,34.567 -2.15,51.848 h -1.44 c -28.81,-43.926 -67.7,-60.488 -119.53,-60.488 -63.36,0 -118.09,36.004 -118.09,102.25 0,87.847 84.24,118.09 187.93,118.09 h 47.52 v 14.402 c 0,35.281 -25.92,72.004 -81.37,72.004 -49.67,0 -73.44,-20.883 -97.2,-38.879 l -38.89,40.32" /><path
         id="path28"
         style="fill:#05567e;fill-opacity:1;fill-rule:nonzero;stroke:none"
         d="m 3846.02,862.164 h 69.12 V 650.465 h 264.27 v 211.699 h 69.13 V 352.359 h -69.13 V 585.66 H 3915.14 V 352.359 h -69.12 v 509.805" /><path
         id="path30"
         style="fill:#05567e;fill-opacity:1;fill-rule:nonzero;stroke:none"
         d="m 4566.04,551.098 c -1.45,56.882 -33.13,99.367 -98.66,99.367 -64.08,0 -105.84,-54.004 -105.84,-99.367 z m -204.5,-51.844 c 0,-59.766 55.43,-99.367 115.2,-99.367 39.61,0 68.42,20.16 93.61,51.121 l 48.97,-37.442 c -36,-46.804 -85.69,-69.847 -151.21,-69.847 -108.01,0 -175.71,77.765 -175.71,179.297 0,102.25 74.18,179.297 176.43,179.297 120.25,0 166.33,-92.168 166.33,-180.016 v -23.043 h -273.62" /><path
         id="path32"
         style="fill:#05567e;fill-opacity:1;fill-rule:nonzero;stroke:none"
         d="m 4868.44,516.535 c -61.21,0 -136.1,-10.801 -136.1,-65.527 0,-38.883 28.81,-55.445 73.44,-55.445 72.01,0 97.21,53.285 97.21,99.371 v 21.601 z m -182.91,135.371 c 36.01,33.844 87.85,50.407 135.37,50.407 100.82,0 142.58,-54.727 142.58,-113.77 V 414.285 c 0,-23.762 0.72,-43.922 2.89,-61.926 h -57.62 c -1.43,17.282 -2.15,34.567 -2.15,51.848 h -1.44 c -28.81,-43.926 -67.7,-60.488 -119.53,-60.488 -63.36,0 -118.09,36.004 -118.09,102.25 0,87.847 84.24,118.09 187.93,118.09 h 47.52 v 14.402 c 0,35.281 -25.92,72.004 -81.37,72.004 -49.67,0 -73.44,-20.883 -97.21,-38.879 l -38.88,40.32" /><path
         id="path34"
         style="fill:#05567e;fill-opacity:1;fill-rule:nonzero;stroke:none"
         d="m 5034.02,896.727 h 64.81 V 352.359 h -64.81 v 544.368" /><path
         id="path36"
         style="fill:#05567e;fill-opacity:1;fill-rule:nonzero;stroke:none"
         d="m 5365.94,637.508 h -92.87 V 482.691 c 0,-38.164 0,-78.484 48.96,-78.484 15.12,0 33.11,2.156 46.08,10.078 v -59.043 c -15.12,-8.644 -45.38,-11.523 -58.32,-11.523 -100.1,0 -101.53,61.207 -101.53,115.929 v 177.86 h -74.9 v 56.16 h 74.9 v 95.773 h 64.81 v -95.773 h 92.87 v -56.16" /><path
         id="path38"
         style="fill:#05567e;fill-opacity:1;fill-rule:nonzero;stroke:none"
         d="m 5409.84,896.727 h 64.81 V 641.105 h 1.44 c 16.57,36 59.77,61.208 112.33,61.208 66.25,0 123.85,-39.606 123.85,-130.333 V 352.359 h -64.81 v 201.618 c 0,64.086 -36.72,87.847 -77.75,87.847 -54.01,0 -95.06,-34.562 -95.06,-113.769 V 352.359 h -64.81 v 544.368" /><path
         id="path40"
         style="fill:#05567e;fill-opacity:1;fill-rule:evenodd;stroke:none"
         d="M 502.355,822.75 V 960.41 C 385.852,922.324 299.105,840.094 258.891,720.992 h 141.652 c 56.09,0 101.812,45.731 101.812,101.758" /><path
         id="path42"
         style="fill:#76d1ca;fill-opacity:1;fill-rule:evenodd;stroke:none"
         d="m 145.352,720.992 c 45.16,176.938 176.242,309.278 357.003,353.168 v 47.52 c 0,54.1 -42.722,98.46 -96.156,101.43 v 0.3 H 389.594 C 344.668,1031.93 192.859,881.391 0.714844,838.359 V 822.75 c 0,-56.027 45.773456,-101.758 101.742156,-101.758 0.172,0 0.371,0.051 0.539,0.051 v -0.051 h 42.356" /><path
         id="path44"
         style="fill:#05567e;fill-opacity:1;fill-rule:evenodd;stroke:none"
         d="m 103.508,1176.2 c 30.484,0 55.262,-24.79 55.262,-55.25 0,-30.45 -24.778,-55.25 -55.262,-55.25 -30.4221,0 -55.1916,24.8 -55.1916,55.25 0,30.46 24.7695,55.25 55.1916,55.25 m 174.058,47.21 H 102.457 c -55.9687,0 -101.742156,-45.7 -101.742156,-101.73 V 950.074 C 132.988,988.242 237.742,1091.85 277.566,1223.41" /><path
         id="path46"
         style="fill:#05567e;fill-opacity:1;fill-rule:evenodd;stroke:none"
         d="M 811.648,720.992 H 955.055 C 911.793,844.461 820.219,928.754 709.895,960.953 V 823.477 c 0,-56.079 45.703,-102.485 101.753,-102.485" /><path
         id="path48"
         style="fill:#76d1ca;fill-opacity:1;fill-rule:evenodd;stroke:none"
         d="M 709.895,1074.41 C 887.063,1035.42 1025.41,898.938 1068.75,720.992 h 41.75 c 54.16,0 98.56,43.453 101.45,96.887 h 0.31 v 16.644 C 1020.81,879.41 870.227,1031.25 827.195,1223.41 h -15.547 c -56.05,0 -101.753,-45.76 -101.753,-101.78 0,-0.16 0,-0.37 0,-0.52 v 0 -46.7" /><path
         id="path50"
         style="fill:#05567e;fill-opacity:1;fill-rule:evenodd;stroke:none"
         d="m 1109.81,1175.73 c 30.43,0 55.19,-24.75 55.19,-55.19 0,-30.45 -24.76,-55.21 -55.19,-55.21 -30.43,0 -55.18,24.76 -55.18,55.21 0,30.44 24.75,55.19 55.18,55.19 m 102.45,-229.21 v 175.11 c 0,56.02 -45.69,101.78 -101.76,101.78 H 938.945 c 38.211,-132.3 141.725,-237.027 273.315,-276.89" /><path
         id="path52"
         style="fill:#05567e;fill-opacity:1;fill-rule:evenodd;stroke:none"
         d="m 709.895,400.613 v -139.91 c 116.753,37.043 204.851,125.891 245.144,240.949 H 811.633 c -56.035,0 -101.738,-44.961 -101.738,-101.039" /><path
         id="path54"
         style="fill:#76d1ca;fill-opacity:1;fill-rule:evenodd;stroke:none"
         d="M 1068.37,501.652 C 1029.71,330.418 890.902,187.23 709.895,147.961 v -46.223 c 0,-54.156 42.66,-98.51925 96.14,-101.45675 V 0 h 16.637 C 867.5,191.379 1019.39,342.004 1211.48,385.043 v 15.57 c 0,56.078 -45.68,101.039 -101.74,101.039 -0.13,0 -0.35,-0.043 -0.55,-0.043 v 0.043 h -40.82" /><path
         id="path56"
         style="fill:#05567e;fill-opacity:1;fill-rule:evenodd;stroke:none"
         d="m 1108.65,47.2305 c -30.43,0 -55.19,24.75 -55.19,55.1995 0,30.441 24.76,55.25 55.19,55.25 30.43,0 55.2,-24.809 55.2,-55.25 0,-30.4495 -24.77,-55.1995 -55.2,-55.1995 z M 934.609,0 h 175.131 c 56.06,0 101.74,45.7188 101.74,101.738 V 273.309 C 1079.24,235.129 974.48,131.559 934.609,0" /><path
         id="path58"
         style="fill:#05567e;fill-opacity:1;fill-rule:evenodd;stroke:none"
         d="M 400.621,501.652 H 259.68 C 297.18,383.859 380.438,303.836 502.355,261.148 v 138.731 c 0,56.031 -45.699,101.773 -101.734,101.773" /><path
         id="path60"
         style="fill:#76d1ca;fill-opacity:1;fill-rule:evenodd;stroke:none"
         d="M 502.355,148.32 C 340.859,184.02 193.082,311.242 145.117,501.652 H 101.699 C 47.5781,501.652 3.19531,458.93 0.265625,405.477 H 0 V 388.891 C 191.445,344 341.977,192.148 385.039,0 h 15.582 c 56.035,0 101.734,45.6992 101.734,101.781 0,0.16 -0.027,0.348 -0.027,0.539 h 0.027 v 46" /><path
         id="path62"
         style="fill:#05567e;fill-opacity:1;fill-rule:evenodd;stroke:none"
         d="m 102.383,47.6289 c -30.426,0 -55.2111,24.7813 -55.2111,55.2421 0,30.449 24.7851,55.188 55.2111,55.188 30.453,0 55.23,-24.739 55.23,-55.188 0,-30.4608 -24.777,-55.2421 -55.23,-55.2421 z M 0,276.871 V 101.781 C 0,45.6992 45.668,0 101.699,0 H 273.281 C 235.074,132.289 131.531,237.078 0,276.871" /></g></g></svg>