<svg xmlns="http://www.w3.org/2000/svg" xmlns:xlink="http://www.w3.org/1999/xlink" width="506.294" height="144" viewBox="0 0 506.294 144">
  <defs>
    <linearGradient id="linear-gradient" x1="0.132" y1="0.009" x2="0.95" y2="1.1" gradientUnits="objectBoundingBox">
      <stop offset="0" stop-color="#21dbaa"/>
      <stop offset="0.072" stop-color="#17d0bc"/>
      <stop offset="0.227" stop-color="#06bbe1"/>
      <stop offset="0.309" stop-color="#00b4ef"/>
      <stop offset="0.387" stop-color="#01a7ec"/>
      <stop offset="0.529" stop-color="#0487e4"/>
      <stop offset="0.646" stop-color="#0768dd"/>
      <stop offset="1" stop-color="#5f1ae5"/>
    </linearGradient>
  </defs>
  <g id="RGB_qualtrics_XM" data-name="RGB qualtrics XM" transform="translate(-63.38 -67.385)">
    <g id="Group_3" data-name="Group 3">
      <g id="Group_2" data-name="Group 2">
        <g id="Group_1" data-name="Group 1">
          <path id="Path_1" data-name="Path 1" d="M230.855,167.432c-3.1,0-3.71-2.28-3.71-6.218V121.777c0-13.43-7.565-21.447-20.236-21.447-15.133,0-22.013,11.665-22.117,23.226l-.005.476H194.85l-.006-.478a14.726,14.726,0,0,1,3.868-10.52,10.51,10.51,0,0,1,7.663-3.2c6.044,0,9.652,4.741,9.652,12.68v3.679l-12.153,5.767c-13.777,6.444-22.808,11.685-22.808,25.281,0,11.935,7.511,19.954,18.691,19.954,6.338,0,12.386-3.135,17.12-8.849,1.61,5.639,5.8,8.849,11.628,8.849a16.744,16.744,0,0,0,6.288-1.3l.293-.121v-9.708l-.694.379A6.422,6.422,0,0,1,230.855,167.432Zm-14.828-31.4v22.936c-2.739,4.444-8.04,8.891-13.793,8.891-6.178,0-10.017-4.04-10.017-10.542,0-9.066,7.926-13.894,14.832-17.088Z" fill="#000406"/>
          <path id="Path_2" data-name="Path 2" d="M287.5,78.5H276.38l-.389,23.294h-9.67v10.059H276.38V160.21c0,10.855,5.069,16.833,14.275,16.833a21.939,21.939,0,0,0,10.9-3.1l.241-.135V163.773l-.766.626a12.339,12.339,0,0,1-7.633,3.025c-4.873,0-5.9-4.057-5.9-7.461V111.855H303.38V101.8H287.5Z" fill="#000406"/>
          <path id="Path_3" data-name="Path 3" d="M158.321,158.234c-4.193,6.082-9.011,9.429-13.579,9.429-5.992,0-8.127-5.879-8.127-11.38V101.8H125.5v54.827c0,12.787,5.819,20.121,15.964,20.121,8.345,0,13.832-4.545,17.135-8.789l.188,7.43h10.655V101.8H158.321Z" fill="#000406"/>
          <path id="Path_4" data-name="Path 4" d="M101.374,108.5c-2.778-5.155-7.9-8.068-14.332-8.068-6.185,0-11.874,3.06-16.02,8.617-5.071,6.8-7.642,16.8-7.642,29.712,0,28.26,11.411,38.329,22.091,38.329a17.917,17.917,0,0,0,14.615-6.878v41.171H111.2V101.8h-9.524Zm-1.288,10.3v40.392c-3.063,5.539-6.782,8.121-11.695,8.121-9.1,0-13.713-9.608-13.713-28.557,0-18.215,5.19-28.662,14.237-28.662C93.916,110.1,98.293,113.51,100.086,118.8Z" fill="#000406"/>
          <rect id="Rectangle_1" data-name="Rectangle 1" width="11.118" height="108.529" transform="translate(244.086 67.385)" fill="#000406"/>
          <rect id="Rectangle_2" data-name="Rectangle 2" width="11.118" height="73.588" transform="translate(355.792 101.796)" fill="#000406"/>
          <rect id="Rectangle_3" data-name="Rectangle 3" width="11.118" height="12.706" transform="translate(355.792 78.502)" fill="#000406"/>
          <path id="Path_5" data-name="Path 5" d="M325.161,110.517,324.6,101.8H313.968v74.118h11.118v-53.3s11.515-11.53,17.708-11.532l2.409.211V100.208h-2.79C334.572,100.528,330.268,102.979,325.161,110.517Z" fill="#000406"/>
          <path id="Path_6" data-name="Path 6" d="M456.72,131.9l-.281.385h0l.221-.418-.005,0c-6.927-3.575-11.83-6.588-11.83-12.823,0-5.4,3.822-9.026,9.512-9.026a9.679,9.679,0,0,1,7.42,3.057c2.218,2.45,3.248,6.256,2.83,10.442l-.052.519h10.221l.021-.45c.333-6.938-1.675-13.058-5.654-17.232-3.653-3.833-8.73-5.858-14.681-5.858-11.912,0-20.231,7.886-20.231,19.179,0,12.3,9.863,17.582,17.063,21.435,7.169,3.892,13.941,7.569,13.941,15.244a10.814,10.814,0,0,1-11.193,11.169c-7.064,0-12.143-5.937-12.35-14.438l-.011-.461h-10.3l.011.483c.332,14.936,9.01,24.214,22.648,24.214,13.043,0,21.806-8.637,21.806-21.492C475.828,142.014,465.677,136.639,456.72,131.9Z" fill="#000406"/>
          <path id="Path_7" data-name="Path 7" d="M413.685,152.62c-.222,5.236-1.648,9.555-4.075,12.085a8.682,8.682,0,0,1-6.509,2.715c-8.436,0-12.894-9.829-12.894-28.425,0-18.507,4.616-28.7,13-28.7a8.134,8.134,0,0,1,6.073,2.522c2.27,2.348,3.633,6.35,3.875,11.214h10.375c-.122-7.7-2.193-13.864-6.084-17.915-3.431-3.573-8.081-5.384-13.821-5.384-15.72,0-24.377,13.551-24.377,38.158s8.4,38.157,23.646,38.157c12.278,0,19.961-9.069,20.929-24.428Z" fill="#000406"/>
        </g>
        <path id="Path_8" data-name="Path 8" d="M491.364,169.8a2.9,2.9,0,0,0,.342-1.431,2.411,2.411,0,0,0-.708-1.843,2.927,2.927,0,0,0-2.075-.67h-3.955V173.8h2.118v-2.647H488.7l1.44,2.647h1.837l-1.694-3.083A2.051,2.051,0,0,0,491.364,169.8Zm-1.694-.453a2.367,2.367,0,0,1-1.129.215h-1.455v-2.117h1.455a2.031,2.031,0,0,1,1.129.259.95.95,0,0,1,.387.857A.816.816,0,0,1,489.67,169.346Z" fill="#000406"/>
        <path id="Path_9" data-name="Path 9" d="M494.734,166.961a6.592,6.592,0,0,0-1.492-2.206,6.818,6.818,0,0,0-2.232-1.436,7.745,7.745,0,0,0-5.549,0,6.83,6.83,0,0,0-2.237,1.436,6.672,6.672,0,0,0-1.488,2.206,7.274,7.274,0,0,0-.54,2.859,7.356,7.356,0,0,0,.54,2.867,6.772,6.772,0,0,0,1.488,2.236,6.608,6.608,0,0,0,2.237,1.447,7.745,7.745,0,0,0,5.549,0,6.6,6.6,0,0,0,2.232-1.447,6.69,6.69,0,0,0,1.492-2.236,7.411,7.411,0,0,0,.54-2.867A7.328,7.328,0,0,0,494.734,166.961Zm-1.356,5.171a5.569,5.569,0,0,1-1.178,1.8,5.016,5.016,0,0,1-1.757,1.163,5.956,5.956,0,0,1-4.333,0,4.992,4.992,0,0,1-1.76-1.163,5.569,5.569,0,0,1-1.178-1.8,6.3,6.3,0,0,1,0-4.6,5.568,5.568,0,0,1,1.178-1.8,5.046,5.046,0,0,1,1.76-1.163,5.956,5.956,0,0,1,4.333,0,5.072,5.072,0,0,1,1.757,1.163,5.568,5.568,0,0,1,1.178,1.8,6.3,6.3,0,0,1,0,4.6Z" fill="#000406"/>
      </g>
      <path id="Path_10" data-name="Path 10" d="M555.969,77.973,546.4,111.855h-.122L536,77.973H513.548L505.771,91.8l-8.234-13.824H485.992L499.421,99.7l-14.736,24.336H495.62l9.4-16.019,9.732,16.019h17.335V92.267h.12q.363,2,.681,3.415t.619,2.63q.3,1.209.65,2.3t.71,2.388l6.8,21.035h9.155l6.718-21.025q.74-2.538,1.376-4.894a51.913,51.913,0,0,0,1.11-5.317h.119v31.236h9.529V77.973ZM510.6,99.674l11.958-19.848v39.308Z" fill="url(#linear-gradient)"/>
    </g>
  </g>
</svg>
