<?xml version="1.0" encoding="UTF-8"?>
<svg width="699px" height="157px" viewBox="0 0 699 157" version="1.1" xmlns="http://www.w3.org/2000/svg" xmlns:xlink="http://www.w3.org/1999/xlink">
    <!-- Generator: Sketch 57.1 (83088) - https://sketch.com -->
    <title>logoDuoLarge</title>
    <desc>Created with Sketch.</desc>
    <g id="Logo-&amp;-Icon" stroke="none" stroke-width="1" fill="none" fill-rule="evenodd">
        <g id="Treehouse-Logo-Green---Small" transform="translate(-50.000000, -51.000000)" fill="#5FCF80">
            <g id="logoDuoLarge" transform="translate(50.649982, 51.188890)">
                <path d="M202.15068,114.891042 C188.495134,114.891042 182.328822,105.588027 182.328822,93.3298628 L182.328822,50.1003656 C182.328822,45.8314705 185.522047,42.4390997 189.706766,42.4390997 C193.781242,42.4390997 197.084711,45.8314705 197.084711,50.1003656 L197.084711,57.5425004 L210.849802,57.5425004 C214.483653,57.5425004 217.677227,60.2781715 217.677227,64.1088045 C217.677227,67.7206531 214.483653,70.4570176 210.849802,70.4570176 L197.084711,70.4570176 L197.084711,93.0018597 C197.084711,98.2554576 199.397383,101.101388 204.242516,101.101388 C206.665432,101.101388 209.087999,100.444341 211.069941,99.897207 C216.686081,98.5838075 220.210386,102.086091 220.210386,106.134814 C220.210386,108.542482 218.998754,111.060409 215.584693,112.592246 C211.730704,114.343214 206.334702,114.891042 202.15068,114.891042" id="Fill-4"></path>
                <path d="M266.239714,63.1238589 C266.239714,66.078661 263.927391,70.0192062 259.301698,70.0192062 C256.769236,70.0192062 254.346669,68.9242443 251.043201,69.0341566 C247.409351,69.1433754 245.316817,71.1131279 245.316817,76.1479415 L245.316817,107.119968 C245.316817,111.279298 242.123592,114.562103 237.938524,114.562103 C233.863699,114.562103 230.56058,111.279298 230.56058,107.119968 L230.56058,73.4119237 C230.56058,62.0299372 237.278109,54.6966744 249.941463,54.6966744 C253.575314,54.6966744 257.209164,55.0257177 259.41229,55.5725052 C263.927391,56.7763392 266.239714,59.512357 266.239714,63.1238589" id="Fill-6"></path>
                <path d="M308.087673,79.8689743 C308.858331,79.8689743 309.298957,79.4310588 309.298957,78.5555748 C309.628989,71.8797052 305.44427,67.3923725 298.286464,67.3923725 C290.468244,67.3923725 286.613906,72.3172739 286.613906,79.8689743 L308.087673,79.8689743 Z M323.504325,82.4957732 C323.504325,86.7636281 321.301896,89.8283425 315.906243,89.8283425 L286.613906,89.8283425 L286.613906,90.922611 C286.613906,97.8176116 291.900014,101.538332 299.278307,101.538332 C303.242191,101.538332 307.317015,100.553283 311.06076,99.1306643 C316.897039,96.9417807 320.750678,100.881979 320.750678,104.93105 C320.750678,107.010715 319.98002,109.309164 317.007631,111.060479 C312.933156,113.4678 305.884896,114.891112 298.837682,114.891112 C283.64082,114.891112 273.399683,105.368965 272.298643,91.689223 C271.967913,87.4203279 272.077808,81.4011581 272.298643,78.0084405 C273.619822,63.7808707 283.860958,54.6966397 298.286464,54.6966397 C313.263189,54.6966397 323.504325,64.656008 323.504325,80.0881053 L323.504325,82.4957732 Z" id="Fill-8"></path>
                <path d="M370.3063,79.8689743 C371.076958,79.8689743 371.517584,79.4310588 371.517584,78.5555748 C371.847616,71.8797052 367.662897,67.3923725 360.505091,67.3923725 C352.686871,67.3923725 348.832534,72.3172739 348.832534,79.8689743 L370.3063,79.8689743 Z M385.722603,82.4957732 C385.722603,86.7636281 383.520523,89.8283425 378.124521,89.8283425 L348.832534,89.8283425 L348.832534,90.922611 C348.832534,97.8176116 354.118641,101.538332 361.496934,101.538332 C365.460818,101.538332 369.535642,100.553283 373.279387,99.1306643 C379.115666,96.9417807 382.969654,100.881979 382.969654,104.93105 C382.969654,107.010715 382.198647,109.309164 379.225909,111.060479 C375.151783,113.4678 368.103523,114.891112 361.05596,114.891112 C345.859447,114.891112 335.61831,105.368965 334.517271,91.689223 C334.18654,87.4203279 334.296435,81.4011581 334.517271,78.0084405 C335.838449,63.7808707 346.079585,54.6966397 360.505091,54.6966397 C375.481816,54.6966397 385.722603,64.656008 385.722603,80.0881053 L385.722603,82.4957732 Z" id="Fill-10"></path>
                <path d="M413.143625,58.9651534 C415.566192,56.7766166 421.182332,54.6966051 427.01896,54.6966051 C441.00419,54.6966051 449.263036,63.0149174 449.263036,78.6651056 L449.263036,106.791549 C449.263036,111.169316 446.179357,114.56238 441.774848,114.56238 C437.700373,114.56238 434.506799,111.169316 434.506799,106.791549 L434.506799,79.4310242 C434.506799,72.7548079 430.653159,69.0340872 424.596393,69.0340872 C419.9707,69.0340872 415.456297,71.1130585 413.143625,73.6306387 L413.143625,107.01068 C413.143625,111.169316 410.060643,114.56238 405.875575,114.56238 C401.800751,114.56238 398.387737,111.169316 398.387737,107.01068 L398.387737,42.9866154 C398.387737,38.718067 401.580962,35.4345683 405.765681,35.4345683 C409.839458,35.4345683 413.143625,38.718067 413.143625,42.9866154 L413.143625,58.9651534 Z" id="Fill-12"></path>
                <path d="M500.250184,79.3214586 C499.920151,73.0838512 495.515294,68.7053906 488.577277,68.7053906 C481.63961,68.7053906 477.345345,73.0838512 476.794476,79.3214586 C476.574687,82.2766075 476.574687,87.4202932 476.794476,90.2658765 C477.345345,96.5045241 481.63961,100.882291 488.577277,100.882291 C495.515294,100.882291 499.809559,96.5045241 500.250184,90.2658765 C500.470671,87.4202932 500.470671,82.2766075 500.250184,79.3214586 M488.577277,114.891077 C474.151771,114.891077 463.249871,105.697627 462.14918,92.6738912 C461.818449,88.2964707 461.818449,81.4011234 462.14918,77.0233563 C463.249871,63.8897081 474.151771,54.6966051 488.577277,54.6966051 C503.113376,54.6966051 513.795138,63.8897081 514.896527,77.0233563 C515.226908,81.4011234 515.226908,88.1865585 514.896527,92.5639789 C513.795138,105.697627 503.113376,114.891077 488.577277,114.891077" id="Fill-14"></path>
                <path d="M527.780752,62.7957517 C527.780752,58.4183313 530.423108,55.0256137 535.048801,55.0256137 C539.232474,55.0256137 542.536291,58.4183313 542.536291,62.7957517 L542.536291,90.7034105 C542.536291,97.2707547 546.831254,100.882257 553.108507,100.882257 C557.953292,100.882257 561.587491,99.4592916 563.899814,98.0366733 L563.899814,62.5769673 C563.899814,58.4183313 566.983144,55.0256137 571.278456,55.0256137 C575.352234,55.0256137 578.656051,58.4183313 578.656051,62.5769673 L578.656051,103.508362 C578.656051,106.025942 577.995288,107.448561 576.012997,108.652741 C572.599634,111.060409 564.560926,114.891042 552.778125,114.891042 C536.92015,114.891042 527.780752,106.353945 527.780752,90.9225416 L527.780752,62.7957517 Z" id="Fill-16"></path>
                <path d="M636.800517,95.847859 C636.800517,108.105676 626.559032,114.891112 613.785085,114.891112 C603.434403,114.891112 596.826768,111.935269 592.751944,108.542552 C590.109587,106.354015 589.338929,102.195379 591.430765,99.4593609 C593.633543,96.5045588 597.377637,95.847859 601.011836,98.1456147 C604.42485,100.334498 608.9403,101.757463 614.115467,101.757463 C619.8422,101.757463 622.484905,99.678492 622.484905,96.7226497 C622.484905,94.3149818 620.723101,92.6739259 616.097408,91.578964 C612.133525,90.7034799 612.243769,90.8130454 607.949155,89.7184303 C598.919302,87.4203279 591.871391,82.3862077 591.871391,72.9739736 C591.871391,61.1537249 601.452461,54.6966397 614.336303,54.6966397 C621.273621,54.6966397 628.431776,56.4476079 632.285765,59.6222346 C635.47899,62.2483401 635.2592,66.7356728 632.946179,69.362125 C630.7441,71.7701397 626.999308,72.0981428 623.365458,70.2383026 C620.502266,68.8149908 616.648626,67.8302879 613.785085,67.8302879 C608.279885,67.8302879 605.966864,69.9092593 605.966864,72.5360582 C605.966864,74.8348541 607.618424,76.3663445 612.57415,77.4616531 L620.392371,79.2122745 C631.404165,81.8390735 636.800517,87.2015435 636.800517,95.847859" id="Fill-18"></path>
                <path d="M682.501033,79.8689743 C683.272389,79.8689743 683.712666,79.4310588 683.712666,78.5555748 C684.043396,71.8797052 679.859026,67.3923725 672.70122,67.3923725 C664.882302,67.3923725 661.027965,72.3172739 661.027965,79.8689743 L682.501033,79.8689743 Z M697.918383,82.4957732 C697.918383,86.7636281 695.715954,89.8283425 690.320301,89.8283425 L661.027965,89.8283425 L661.027965,90.922611 C661.027965,97.8176116 666.314072,101.538332 673.691668,101.538332 C677.655551,101.538332 681.730375,100.553283 685.474818,99.1306643 C691.311097,96.9417807 695.165783,100.881979 695.165783,104.93105 C695.165783,107.010715 694.394776,109.309164 691.420992,111.060479 C687.346516,113.4678 680.299303,114.891112 673.251042,114.891112 C658.054878,114.891112 647.813741,105.368965 646.712353,91.689223 C646.38232,87.4203279 646.492563,81.4011581 646.712353,78.0084405 C648.03388,63.7808707 658.275365,54.6966397 672.70122,54.6966397 C687.677247,54.6966397 697.918383,64.656008 697.918383,80.0881053 L697.918383,82.4957732 Z" id="Fill-20"></path>
                <path d="M127.447775,28.7386926 C122.255165,25.8213369 113.963525,30.5132382 108.927209,39.2195374 L99.8094408,54.9831051 C96.4777136,61.5369269 96.9347358,69.3396572 101.159924,75.3633344 L101.426113,75.7429998 C105.651302,81.7663303 111.316633,87.3344091 113.191471,89.3208045 C114.293209,90.4885789 115.135735,91.9299204 115.600432,93.5782576 C117.140004,99.0509866 113.925498,104.728284 108.418903,106.259775 C102.912308,107.790918 97.1991808,104.595835 95.6589111,99.122759 C95.2720121,97.7486824 95.1858407,96.3624703 95.359579,95.0320812 C95.6557713,92.7707319 94.9255822,89.0881511 91.6636295,85.4724885 C88.4013278,81.8564792 81.7340358,88.6859485 79.5780072,95.7085444 L79.4782298,96.0309999 C77.3222011,103.053596 75.9616005,109.182678 76.368734,109.772459 C76.6108512,110.123347 76.8362225,110.49261 77.0427547,110.877476 C80.0671256,116.53397 77.9058639,123.556913 72.2143668,126.563377 C66.5225208,129.570188 59.4568171,127.421525 56.4310506,121.765725 C53.4063308,116.108884 55.5679414,109.086288 61.2594385,106.08017 C61.5148128,105.944947 61.772978,105.820126 62.0339342,105.706053 C62.4686287,105.516393 63.7015422,102.563671 64.7715325,99.0766444 C65.8425694,95.5892705 66.3016849,94.3625526 66.7098651,92.7624104 C67.2586406,90.6127069 68.0634882,86.1492984 67.6629832,83.9413448 C67.2178226,81.4872156 64.6762904,81.3176664 62.0325387,83.1969233 C60.4381939,84.331412 57.8017685,86.5632896 56.5140821,87.478994 C54.0960506,89.1991035 52.0729421,92.5391186 51.0019052,94.585151 C50.3718425,95.7896784 49.4895453,96.8881075 48.3612934,97.7972241 C43.9508541,101.353943 37.4750929,100.683374 33.8967132,96.3000596 C30.3183336,91.9174383 30.9930519,85.4815034 35.4024446,81.925131 C36.6950152,80.8828715 38.1662082,80.2036345 39.6890343,79.8738978 C42.2797575,79.3146281 51.0919142,73.9646402 56.4006988,70.1894835 C57.3513748,69.5140605 58.9488595,68.3896269 59.4920532,67.6996414 C61.0822115,65.6806538 59.3713435,64.0857125 57.8310738,64.2559551 C53.3128331,64.7542009 48.6595789,65.3869765 47.7804216,66.498928 C47.2602535,67.1559745 46.6410058,67.7523438 45.9240739,68.2644587 C41.804245,71.2144067 36.0576261,70.2858734 33.0890747,66.1906883 C30.1201743,62.0948097 31.0558489,56.3828394 35.1756778,53.4339316 C36.8760797,52.2172688 38.8520905,51.660773 40.7946095,51.7145156 C44.0991247,51.8050112 52.7944093,53.557713 60.0687385,52.276559 L61.9369478,51.9478624 C69.2119747,50.6663618 77.921912,44.3725847 81.3921413,37.8901884 C81.3921413,37.8901884 84.7901542,31.9577002 88.981153,24.6400402 C93.1735473,17.3216867 92.863749,9.30641317 88.2907354,6.73717076 L80.0095618,2.08410287 C75.832169,-0.263581387 68.9925343,-0.267395377 64.8113039,2.07543471 L7.77632101,34.0314707 C3.59543949,36.373954 0.174401091,42.1937562 0.174401091,46.9636708 L0.174401091,109.410824 C0.174401091,114.181085 3.59543949,120.000887 7.77632101,122.344064 L64.8113039,154.299407 C68.9925343,156.642584 75.832169,156.637729 80.0095618,154.290045 L136.849525,122.352386 C141.028662,120.005048 144.447259,114.181085 144.447259,109.410824 L144.447259,46.9636708 C144.447259,42.1937562 141.028662,36.3694466 136.849525,34.0221091 C136.849525,34.0221091 132.640036,31.6567418 127.447775,28.7386926" id="Fill-22"></path>
            </g>
        </g>
    </g>
</svg>