<?xml version="1.0" encoding="UTF-8"?>
<svg width="83px" height="25px" viewBox="0 0 83 25" version="1.1" xmlns="http://www.w3.org/2000/svg" xmlns:xlink="http://www.w3.org/1999/xlink">
    <!-- Generator: Sketch 57.1 (83088) - https://sketch.com -->
    <title>Udemy Logo</title>
    <desc>Created with Sketch.</desc>
    <g id="Page-1" stroke="none" stroke-width="1" fill="none" fill-rule="evenodd">
        <g id="About-Me-(Mobile)" transform="translate(-217.000000, -1674.000000)">
            <g id="Education-Section" transform="translate(20.000000, 1393.000000)">
                <g id="iOS-Development-Section" transform="translate(22.000000, 281.000000)">
                    <g id="Udemy-Logo" transform="translate(175.000000, 0.000000)">
                        <path d="M36.0204556,12.8008294 L36.0204556,7.215708 L38.4318119,7.215708 L38.4318119,12.7633306 C38.4318119,14.7499524 39.3360807,15.1623574 40.5605638,15.1623574 C41.8980397,15.1623574 42.5950871,14.5812892 42.5950871,12.7633306 L42.5950871,7.215708 L45.0252891,7.215708 L45.0252891,12.8008294 C45.0252891,16.0994202 43.5747388,17.4676374 40.4474894,17.4676374 C37.5275431,17.4863056 36.0204556,16.2868328 36.0204556,12.8008294 L36.0204556,12.8008294 Z M51.7317591,16.7179871 C51.1288588,17.1678097 50.4318115,17.4488068 49.4523229,17.4488068 C47.3800266,17.4488068 45.8730207,16.1744177 45.8730207,13.5504796 C45.8730207,10.945372 47.5872481,9.53973731 49.8102287,9.53973731 C50.3189003,9.53973731 50.8274903,9.61465363 51.2796247,9.78339798 L51.2796247,6.59722222 L53.5966708,6.59722222 L53.5966708,17.2801436 L52.1273563,17.2801436 L51.7317591,16.7179871 Z M49.9421488,15.4809344 C50.469503,15.4809344 50.8651817,15.3872687 51.2796247,15.0873599 L51.2796247,11.7887691 C50.9028732,11.5638578 50.5448859,11.470111 50.0173686,11.470111 C48.8871141,11.470111 48.2277582,12.2385917 48.2277582,13.5129809 C48.2277582,14.7499524 48.8871141,15.4809344 49.9421488,15.4809344 L49.9421488,15.4809344 Z M58.513612,17.4301386 C56.2717857,17.4301386 54.4821754,16.3243315 54.4821754,13.4380645 C54.4821754,10.7204607 56.2153301,9.55848668 58.2121619,9.55848668 C60.6234366,9.55848668 61.6972354,11.2451997 61.6972354,13.887806 L56.8369129,13.887806 C57.0064429,15.199775 57.8165647,15.5746813 58.8903635,15.5746813 C59.7945507,15.5746813 60.5857452,15.3685194 61.245101,14.9749449 L60.9249683,16.8116528 C60.3032223,17.2239767 59.5497194,17.4301386 58.513612,17.4301386 L58.513612,17.4301386 Z M56.8558403,12.7633306 L59.8511695,12.7633306 C59.6815579,11.7887691 59.1541222,11.3201972 58.3628462,11.3201972 C57.6847261,11.3201972 57.0253703,11.7137716 56.8558403,12.7633306 L56.8558403,12.7633306 Z M64.9564049,12.1260955 L64.9564049,17.2801436 L62.6391957,17.2801436 L62.6391957,9.72714986 L64.2781217,9.72714986 L64.7679476,10.3831344 C65.4084578,9.8583143 66.0866594,9.53973731 66.8590081,9.53973731 C67.8951154,9.53973731 68.7052372,9.83956493 69.1761357,10.6079645 C69.8920288,9.97081053 70.6267676,9.53973731 71.587492,9.53973731 C73.3771023,9.53973731 74.4318107,10.4580507 74.4318107,12.9694926 L74.4318107,17.2614754 L72.096082,17.2614754 L72.096082,13.2319026 C72.096082,12.0698474 71.6251835,11.732521 70.8716805,11.732521 C70.4383103,11.732521 70.0615588,11.8449361 69.6471158,12.1073461 C69.6848073,12.3697562 69.6848073,12.6509156 69.6848073,12.9507432 L69.6848073,17.2426449 L67.3865254,17.2426449 L67.3865254,13.2131532 C67.3865254,12.051098 66.9155453,11.7137716 66.1431966,11.7137716 C65.7099079,11.7512704 65.3707663,11.8636854 64.9564049,12.1260955 L64.9564049,12.1260955 Z M76.4664971,19.7916667 L78.7646974,19.7916667 L82.7777778,9.72714986 L80.4983416,9.72714986 L78.8405698,14.7312842 L77.1069256,9.72714986 L74.5639755,9.72714986 L77.597241,16.9990654 L76.4664971,19.7916667 L76.4664971,19.7916667 Z" id="Fill-1" fill="#4C413B"></path>
                        <path d="M29.9488862,14.2640985 C29.8353525,14.1691392 29.7217367,14.1122951 29.589267,14.0932375 C28.8132208,14.8709835 27.8667509,15.6865983 27.0338968,16.2177459 C26.6553416,16.4832376 26.1631707,16.5970901 25.8414234,16.5970901 C25.1031671,16.5970901 24.7813379,15.8952458 24.6867401,14.757131 C24.5541884,13.2397541 24.4785265,11.4377458 24.4785265,8.63045071 C24.4785265,5.76631147 23.83495,3.81258194 22.0934979,3.66086068 C22.017836,3.66086068 21.9420922,3.64188525 21.8663484,3.64188525 C20.8063448,3.64188525 20.295238,4.19192616 19.6138715,5.57663936 C19.0271028,6.77159831 18.1374408,8.49770488 16.4527146,11.7792213 C14.9953018,14.6054919 13.3863195,17.1282377 12.0045686,18.8542622 C11.6260134,19.3284835 11.3231201,19.669959 11.0202268,19.8596311 C10.8309492,19.992377 10.6416716,20.0493032 10.4523941,20.0493032 C9.90341532,20.0493032 9.50592421,19.5940573 9.3734545,18.5128688 C9.33558259,18.2473771 9.31664663,17.9628279 9.31664663,17.6403278 C9.31664663,15.4210244 10.1495008,11.81709 11.6070775,6.50610664 C12.6669991,2.63659842 12.2127821,0 9.90341532,0 C9.90341532,0 9.90341532,0 9.88447937,0 L9.86554341,0 C9.33558259,0 8.90021957,0.189672111 8.48379251,0.531147627 C8.06736544,0.853565573 7.65093838,1.55540989 7.27238322,2.50377044 C6.85595616,3.62290983 4.20590613,8.93397538 0.00376357659,11.6653688 C-0.0530442887,12.7086065 0.533806372,13.7518441 1.7262797,13.8656967 C2.80521927,13.9604917 3.58126553,13.5052458 4.5656073,12.8414344 C4.48986348,13.1828278 4.41420164,13.4863525 4.35739377,13.7709017 C4.28164995,14.1122951 4.22484209,14.3968443 4.16811619,14.6243851 C4.09237237,14.9657785 4.03556451,15.1934836 4.03556451,15.2503278 C3.9030948,15.8762704 3.80841502,16.4833197 3.73275318,17.052336 C3.14590251,22.3634016 5.60667497,25 8.48379251,25 C8.95702744,25 9.44911635,24.9429916 9.92235128,24.8293033 C13.1023621,24.0136064 16.1499033,20.3717212 19.7652771,11.9878689 C19.7084693,12.8983607 19.7084693,13.7518441 19.7463412,14.5484834 C19.9924266,19.3664344 21.8852844,20.8080738 24.5731243,20.8080738 C26.5985338,20.8080738 28.5103275,19.7457786 29.4756513,18.4369671 C30.1760357,17.507582 30.478847,16.4832376 30.478847,15.6676228 C30.4599111,15.0227869 30.2706335,14.5295902 29.9488862,14.2640985" id="Fill-2" fill="#E15F53"></path>
                    </g>
                </g>
            </g>
        </g>
    </g>
</svg>